<svg xmlns="http://www.w3.org/2000/svg" xmlns:xlink="http://www.w3.org/1999/xlink" width="1500" zoomAndPan="magnify" viewBox="0 0 1125 374.999991" height="500" preserveAspectRatio="xMidYMid meet" version="1.0"><defs><g/><clipPath id="7ad88096bb"><path d="M 210 124 L 569 124 L 569 188.558594 L 210 188.558594 Z M 210 124 " clip-rule="nonzero"/></clipPath><clipPath id="0f347f2835"><rect x="0" width="359" y="0" height="65"/></clipPath><clipPath id="fa43213562"><path d="M 73 8.359375 L 118 8.359375 L 118 71 L 73 71 Z M 73 8.359375 " clip-rule="nonzero"/></clipPath><clipPath id="8cf82cea86"><path d="M 1.125 10 L 118 10 L 118 125 L 1.125 125 Z M 1.125 10 " clip-rule="nonzero"/></clipPath><clipPath id="35e40ac601"><path d="M 117.238281 10.800781 C 117.292969 18.527344 116.390625 44.039062 103.851562 68.953125 C 99.894531 76.789062 94.796875 84.570312 88.203125 91.722656 C 71.121094 110.25 44.023438 124.511719 1.125 124.511719 L 1.125 80.984375 C 32.765625 80.984375 55.800781 76.136719 72.574219 68.953125 C 78.546875 66.390625 83.730469 63.535156 88.214844 60.492188 C 114.609375 42.601562 117.132812 18.351562 117.238281 10.800781 Z M 117.238281 10.800781 " clip-rule="nonzero"/></clipPath><linearGradient x1="0.000000000000028422" gradientTransform="matrix(0.48282, 0, 0, 0.48282, 1.1256, 8.445809)" y1="122.636002" x2="240.60001" gradientUnits="userSpaceOnUse" y2="122.636002" id="b2e06a0418"><stop stop-opacity="1" stop-color="rgb(55.288696%, 70.588684%, 100%)" offset="0"/><stop stop-opacity="1" stop-color="rgb(55.288696%, 70.588684%, 100%)" offset="0.03125"/><stop stop-opacity="1" stop-color="rgb(55.111694%, 70.407104%, 99.867249%)" offset="0.046875"/><stop stop-opacity="1" stop-color="rgb(54.777527%, 70.066833%, 99.61853%)" offset="0.0546875"/><stop stop-opacity="1" stop-color="rgb(54.46167%, 69.744873%, 99.383545%)" offset="0.0625"/><stop stop-opacity="1" stop-color="rgb(54.147339%, 69.424438%, 99.14856%)" offset="0.0703125"/><stop stop-opacity="1" stop-color="rgb(53.833008%, 69.102478%, 98.913574%)" offset="0.078125"/><stop stop-opacity="1" stop-color="rgb(53.517151%, 68.780518%, 98.680115%)" offset="0.0859375"/><stop stop-opacity="1" stop-color="rgb(53.20282%, 68.460083%, 98.445129%)" offset="0.09375"/><stop stop-opacity="1" stop-color="rgb(52.888489%, 68.138123%, 98.210144%)" offset="0.101562"/><stop stop-opacity="1" stop-color="rgb(52.572632%, 67.817688%, 97.975159%)" offset="0.109375"/><stop stop-opacity="1" stop-color="rgb(52.258301%, 67.495728%, 97.741699%)" offset="0.117188"/><stop stop-opacity="1" stop-color="rgb(51.94397%, 67.175293%, 97.506714%)" offset="0.125"/><stop stop-opacity="1" stop-color="rgb(51.628113%, 66.853333%, 97.271729%)" offset="0.132812"/><stop stop-opacity="1" stop-color="rgb(51.313782%, 66.531372%, 97.038269%)" offset="0.140625"/><stop stop-opacity="1" stop-color="rgb(50.999451%, 66.210938%, 96.803284%)" offset="0.148438"/><stop stop-opacity="1" stop-color="rgb(50.683594%, 65.888977%, 96.568298%)" offset="0.15625"/><stop stop-opacity="1" stop-color="rgb(50.369263%, 65.568542%, 96.333313%)" offset="0.164062"/><stop stop-opacity="1" stop-color="rgb(50.054932%, 65.246582%, 96.099854%)" offset="0.171875"/><stop stop-opacity="1" stop-color="rgb(49.739075%, 64.926147%, 95.864868%)" offset="0.179688"/><stop stop-opacity="1" stop-color="rgb(49.424744%, 64.604187%, 95.629883%)" offset="0.1875"/><stop stop-opacity="1" stop-color="rgb(49.110413%, 64.282227%, 95.396423%)" offset="0.195312"/><stop stop-opacity="1" stop-color="rgb(48.794556%, 63.961792%, 95.161438%)" offset="0.203125"/><stop stop-opacity="1" stop-color="rgb(48.480225%, 63.639832%, 94.926453%)" offset="0.210938"/><stop stop-opacity="1" stop-color="rgb(48.165894%, 63.319397%, 94.691467%)" offset="0.21875"/><stop stop-opacity="1" stop-color="rgb(47.850037%, 62.997437%, 94.458008%)" offset="0.226562"/><stop stop-opacity="1" stop-color="rgb(47.535706%, 62.675476%, 94.223022%)" offset="0.234375"/><stop stop-opacity="1" stop-color="rgb(47.221375%, 62.355042%, 93.988037%)" offset="0.242188"/><stop stop-opacity="1" stop-color="rgb(46.905518%, 62.033081%, 93.753052%)" offset="0.25"/><stop stop-opacity="1" stop-color="rgb(46.591187%, 61.712646%, 93.519592%)" offset="0.257812"/><stop stop-opacity="1" stop-color="rgb(46.276855%, 61.390686%, 93.284607%)" offset="0.265625"/><stop stop-opacity="1" stop-color="rgb(45.960999%, 61.070251%, 93.049622%)" offset="0.273438"/><stop stop-opacity="1" stop-color="rgb(45.646667%, 60.748291%, 92.816162%)" offset="0.28125"/><stop stop-opacity="1" stop-color="rgb(45.332336%, 60.426331%, 92.581177%)" offset="0.289062"/><stop stop-opacity="1" stop-color="rgb(45.016479%, 60.105896%, 92.346191%)" offset="0.296875"/><stop stop-opacity="1" stop-color="rgb(44.702148%, 59.783936%, 92.111206%)" offset="0.304688"/><stop stop-opacity="1" stop-color="rgb(44.387817%, 59.463501%, 91.877747%)" offset="0.3125"/><stop stop-opacity="1" stop-color="rgb(44.07196%, 59.141541%, 91.642761%)" offset="0.320312"/><stop stop-opacity="1" stop-color="rgb(43.757629%, 58.81958%, 91.407776%)" offset="0.328125"/><stop stop-opacity="1" stop-color="rgb(43.443298%, 58.499146%, 91.174316%)" offset="0.335938"/><stop stop-opacity="1" stop-color="rgb(43.127441%, 58.177185%, 90.939331%)" offset="0.34375"/><stop stop-opacity="1" stop-color="rgb(42.81311%, 57.85675%, 90.704346%)" offset="0.351562"/><stop stop-opacity="1" stop-color="rgb(42.498779%, 57.53479%, 90.46936%)" offset="0.359375"/><stop stop-opacity="1" stop-color="rgb(42.182922%, 57.214355%, 90.235901%)" offset="0.367188"/><stop stop-opacity="1" stop-color="rgb(41.868591%, 56.892395%, 90.000916%)" offset="0.375"/><stop stop-opacity="1" stop-color="rgb(41.55426%, 56.570435%, 89.76593%)" offset="0.382812"/><stop stop-opacity="1" stop-color="rgb(41.238403%, 56.25%, 89.530945%)" offset="0.390625"/><stop stop-opacity="1" stop-color="rgb(40.924072%, 55.92804%, 89.297485%)" offset="0.398438"/><stop stop-opacity="1" stop-color="rgb(40.609741%, 55.607605%, 89.0625%)" offset="0.40625"/><stop stop-opacity="1" stop-color="rgb(40.293884%, 55.285645%, 88.827515%)" offset="0.414062"/><stop stop-opacity="1" stop-color="rgb(39.979553%, 54.963684%, 88.594055%)" offset="0.421875"/><stop stop-opacity="1" stop-color="rgb(39.663696%, 54.64325%, 88.35907%)" offset="0.429688"/><stop stop-opacity="1" stop-color="rgb(39.349365%, 54.321289%, 88.124084%)" offset="0.4375"/><stop stop-opacity="1" stop-color="rgb(39.035034%, 54.000854%, 87.889099%)" offset="0.445312"/><stop stop-opacity="1" stop-color="rgb(38.719177%, 53.678894%, 87.65564%)" offset="0.453125"/><stop stop-opacity="1" stop-color="rgb(38.404846%, 53.358459%, 87.420654%)" offset="0.460938"/><stop stop-opacity="1" stop-color="rgb(38.090515%, 53.036499%, 87.185669%)" offset="0.46875"/><stop stop-opacity="1" stop-color="rgb(37.774658%, 52.714539%, 86.952209%)" offset="0.476562"/><stop stop-opacity="1" stop-color="rgb(37.460327%, 52.394104%, 86.717224%)" offset="0.484375"/><stop stop-opacity="1" stop-color="rgb(37.145996%, 52.072144%, 86.482239%)" offset="0.492188"/><stop stop-opacity="1" stop-color="rgb(36.830139%, 51.751709%, 86.247253%)" offset="0.5"/><stop stop-opacity="1" stop-color="rgb(36.515808%, 51.429749%, 86.013794%)" offset="0.507812"/><stop stop-opacity="1" stop-color="rgb(36.201477%, 51.107788%, 85.778809%)" offset="0.515625"/><stop stop-opacity="1" stop-color="rgb(35.88562%, 50.787354%, 85.543823%)" offset="0.523438"/><stop stop-opacity="1" stop-color="rgb(35.571289%, 50.465393%, 85.310364%)" offset="0.53125"/><stop stop-opacity="1" stop-color="rgb(35.256958%, 50.144958%, 85.075378%)" offset="0.539062"/><stop stop-opacity="1" stop-color="rgb(34.941101%, 49.822998%, 84.840393%)" offset="0.546875"/><stop stop-opacity="1" stop-color="rgb(34.62677%, 49.502563%, 84.605408%)" offset="0.554688"/><stop stop-opacity="1" stop-color="rgb(34.312439%, 49.180603%, 84.371948%)" offset="0.5625"/><stop stop-opacity="1" stop-color="rgb(33.996582%, 48.858643%, 84.136963%)" offset="0.570312"/><stop stop-opacity="1" stop-color="rgb(33.682251%, 48.538208%, 83.901978%)" offset="0.578125"/><stop stop-opacity="1" stop-color="rgb(33.36792%, 48.216248%, 83.666992%)" offset="0.585938"/><stop stop-opacity="1" stop-color="rgb(33.052063%, 47.895813%, 83.433533%)" offset="0.59375"/><stop stop-opacity="1" stop-color="rgb(32.737732%, 47.573853%, 83.198547%)" offset="0.601562"/><stop stop-opacity="1" stop-color="rgb(32.423401%, 47.253418%, 82.963562%)" offset="0.609375"/><stop stop-opacity="1" stop-color="rgb(32.107544%, 46.931458%, 82.730103%)" offset="0.617188"/><stop stop-opacity="1" stop-color="rgb(31.793213%, 46.609497%, 82.495117%)" offset="0.625"/><stop stop-opacity="1" stop-color="rgb(31.478882%, 46.289062%, 82.260132%)" offset="0.632812"/><stop stop-opacity="1" stop-color="rgb(31.163025%, 45.967102%, 82.025146%)" offset="0.640625"/><stop stop-opacity="1" stop-color="rgb(30.848694%, 45.646667%, 81.791687%)" offset="0.648438"/><stop stop-opacity="1" stop-color="rgb(30.534363%, 45.324707%, 81.556702%)" offset="0.65625"/><stop stop-opacity="1" stop-color="rgb(30.218506%, 45.002747%, 81.321716%)" offset="0.664062"/><stop stop-opacity="1" stop-color="rgb(29.904175%, 44.682312%, 81.088257%)" offset="0.671875"/><stop stop-opacity="1" stop-color="rgb(29.589844%, 44.360352%, 80.853271%)" offset="0.679688"/><stop stop-opacity="1" stop-color="rgb(29.273987%, 44.039917%, 80.618286%)" offset="0.6875"/><stop stop-opacity="1" stop-color="rgb(28.959656%, 43.717957%, 80.383301%)" offset="0.695312"/><stop stop-opacity="1" stop-color="rgb(28.645325%, 43.397522%, 80.149841%)" offset="0.703125"/><stop stop-opacity="1" stop-color="rgb(28.329468%, 43.075562%, 79.914856%)" offset="0.710938"/><stop stop-opacity="1" stop-color="rgb(28.015137%, 42.753601%, 79.679871%)" offset="0.71875"/><stop stop-opacity="1" stop-color="rgb(27.700806%, 42.433167%, 79.444885%)" offset="0.726562"/><stop stop-opacity="1" stop-color="rgb(27.384949%, 42.111206%, 79.211426%)" offset="0.734375"/><stop stop-opacity="1" stop-color="rgb(27.070618%, 41.790771%, 78.97644%)" offset="0.742188"/><stop stop-opacity="1" stop-color="rgb(26.756287%, 41.468811%, 78.741455%)" offset="0.75"/><stop stop-opacity="1" stop-color="rgb(26.44043%, 41.146851%, 78.507996%)" offset="0.757812"/><stop stop-opacity="1" stop-color="rgb(26.126099%, 40.826416%, 78.27301%)" offset="0.765625"/><stop stop-opacity="1" stop-color="rgb(25.811768%, 40.504456%, 78.038025%)" offset="0.773438"/><stop stop-opacity="1" stop-color="rgb(25.495911%, 40.184021%, 77.80304%)" offset="0.78125"/><stop stop-opacity="1" stop-color="rgb(25.18158%, 39.862061%, 77.56958%)" offset="0.789062"/><stop stop-opacity="1" stop-color="rgb(24.867249%, 39.541626%, 77.334595%)" offset="0.796875"/><stop stop-opacity="1" stop-color="rgb(24.551392%, 39.219666%, 77.099609%)" offset="0.804688"/><stop stop-opacity="1" stop-color="rgb(24.237061%, 38.897705%, 76.86615%)" offset="0.8125"/><stop stop-opacity="1" stop-color="rgb(23.921204%, 38.577271%, 76.631165%)" offset="0.820312"/><stop stop-opacity="1" stop-color="rgb(23.606873%, 38.25531%, 76.396179%)" offset="0.828125"/><stop stop-opacity="1" stop-color="rgb(23.292542%, 37.934875%, 76.161194%)" offset="0.835938"/><stop stop-opacity="1" stop-color="rgb(22.976685%, 37.612915%, 75.927734%)" offset="0.84375"/><stop stop-opacity="1" stop-color="rgb(22.662354%, 37.290955%, 75.692749%)" offset="0.851562"/><stop stop-opacity="1" stop-color="rgb(22.348022%, 36.97052%, 75.457764%)" offset="0.859375"/><stop stop-opacity="1" stop-color="rgb(22.032166%, 36.64856%, 75.222778%)" offset="0.867188"/><stop stop-opacity="1" stop-color="rgb(21.717834%, 36.328125%, 74.989319%)" offset="0.875"/><stop stop-opacity="1" stop-color="rgb(21.403503%, 36.006165%, 74.754333%)" offset="0.882812"/><stop stop-opacity="1" stop-color="rgb(21.087646%, 35.68573%, 74.519348%)" offset="0.890625"/><stop stop-opacity="1" stop-color="rgb(20.773315%, 35.36377%, 74.285889%)" offset="0.898438"/><stop stop-opacity="1" stop-color="rgb(20.458984%, 35.041809%, 74.050903%)" offset="0.90625"/><stop stop-opacity="1" stop-color="rgb(20.143127%, 34.721375%, 73.815918%)" offset="0.914062"/><stop stop-opacity="1" stop-color="rgb(19.828796%, 34.399414%, 73.580933%)" offset="0.921875"/><stop stop-opacity="1" stop-color="rgb(19.514465%, 34.078979%, 73.347473%)" offset="0.929688"/><stop stop-opacity="1" stop-color="rgb(19.198608%, 33.757019%, 73.112488%)" offset="0.9375"/><stop stop-opacity="1" stop-color="rgb(18.884277%, 33.435059%, 72.877502%)" offset="0.945312"/><stop stop-opacity="1" stop-color="rgb(18.569946%, 33.114624%, 72.644043%)" offset="0.953125"/><stop stop-opacity="1" stop-color="rgb(18.254089%, 32.792664%, 72.409058%)" offset="0.960938"/><stop stop-opacity="1" stop-color="rgb(17.939758%, 32.472229%, 72.174072%)" offset="0.96875"/><stop stop-opacity="1" stop-color="rgb(17.625427%, 32.150269%, 71.939087%)" offset="0.976562"/><stop stop-opacity="1" stop-color="rgb(17.30957%, 31.829834%, 71.705627%)" offset="0.984375"/><stop stop-opacity="1" stop-color="rgb(17.00592%, 31.518555%, 71.478271%)" offset="1"/></linearGradient><clipPath id="6313aeb420"><path d="M 73 120 L 118 120 L 118 182.824219 L 73 182.824219 Z M 73 120 " clip-rule="nonzero"/></clipPath><clipPath id="29988cdc53"><path d="M 73 66 L 189.550781 66 L 189.550781 181 L 73 181 Z M 73 66 " clip-rule="nonzero"/></clipPath><clipPath id="44596276fc"><path d="M 73.679688 180.183594 C 73.625 172.460938 74.527344 146.949219 87.066406 122.035156 C 91.023438 114.199219 96.121094 106.414062 102.714844 99.265625 C 119.796875 80.738281 146.894531 66.476562 189.796875 66.476562 L 189.796875 110.003906 C 158.15625 110.003906 135.121094 114.851562 118.347656 122.035156 C 112.375 124.597656 107.191406 127.453125 102.707031 130.492188 C 76.316406 148.386719 73.789062 172.636719 73.679688 180.183594 Z M 73.679688 180.183594 " clip-rule="nonzero"/></clipPath><linearGradient x1="167.944108" gradientTransform="matrix(-0.48282, 0, 0, -0.48282, 270.636573, 105.094729)" y1="-37.771" x2="408.042069" gradientUnits="userSpaceOnUse" y2="-37.771" id="19bd326fe4"><stop stop-opacity="1" stop-color="rgb(55.288696%, 70.588684%, 100%)" offset="0"/><stop stop-opacity="1" stop-color="rgb(55.288696%, 70.588684%, 100%)" offset="0.03125"/><stop stop-opacity="1" stop-color="rgb(55.227661%, 70.526123%, 99.954224%)" offset="0.0390625"/><stop stop-opacity="1" stop-color="rgb(55.010986%, 70.304871%, 99.790955%)" offset="0.046875"/><stop stop-opacity="1" stop-color="rgb(54.696655%, 69.984436%, 99.557495%)" offset="0.0546875"/><stop stop-opacity="1" stop-color="rgb(54.382324%, 69.664001%, 99.324036%)" offset="0.0625"/><stop stop-opacity="1" stop-color="rgb(54.067993%, 69.343567%, 99.08905%)" offset="0.0703125"/><stop stop-opacity="1" stop-color="rgb(53.753662%, 69.023132%, 98.855591%)" offset="0.078125"/><stop stop-opacity="1" stop-color="rgb(53.439331%, 68.702698%, 98.620605%)" offset="0.0859375"/><stop stop-opacity="1" stop-color="rgb(53.126526%, 68.380737%, 98.387146%)" offset="0.09375"/><stop stop-opacity="1" stop-color="rgb(52.812195%, 68.060303%, 98.153687%)" offset="0.101562"/><stop stop-opacity="1" stop-color="rgb(52.497864%, 67.739868%, 97.918701%)" offset="0.109375"/><stop stop-opacity="1" stop-color="rgb(52.183533%, 67.419434%, 97.685242%)" offset="0.117187"/><stop stop-opacity="1" stop-color="rgb(51.869202%, 67.098999%, 97.450256%)" offset="0.125"/><stop stop-opacity="1" stop-color="rgb(51.554871%, 66.778564%, 97.216797%)" offset="0.132812"/><stop stop-opacity="1" stop-color="rgb(51.24054%, 66.45813%, 96.983337%)" offset="0.140625"/><stop stop-opacity="1" stop-color="rgb(50.926208%, 66.136169%, 96.748352%)" offset="0.148438"/><stop stop-opacity="1" stop-color="rgb(50.611877%, 65.815735%, 96.514893%)" offset="0.15625"/><stop stop-opacity="1" stop-color="rgb(50.297546%, 65.4953%, 96.279907%)" offset="0.164062"/><stop stop-opacity="1" stop-color="rgb(49.983215%, 65.174866%, 96.046448%)" offset="0.171875"/><stop stop-opacity="1" stop-color="rgb(49.67041%, 64.854431%, 95.812988%)" offset="0.179688"/><stop stop-opacity="1" stop-color="rgb(49.356079%, 64.533997%, 95.578003%)" offset="0.1875"/><stop stop-opacity="1" stop-color="rgb(49.041748%, 64.213562%, 95.344543%)" offset="0.195312"/><stop stop-opacity="1" stop-color="rgb(48.727417%, 63.891602%, 95.109558%)" offset="0.203125"/><stop stop-opacity="1" stop-color="rgb(48.413086%, 63.571167%, 94.876099%)" offset="0.210937"/><stop stop-opacity="1" stop-color="rgb(48.098755%, 63.250732%, 94.642639%)" offset="0.21875"/><stop stop-opacity="1" stop-color="rgb(47.784424%, 62.930298%, 94.407654%)" offset="0.226562"/><stop stop-opacity="1" stop-color="rgb(47.470093%, 62.609863%, 94.174194%)" offset="0.234375"/><stop stop-opacity="1" stop-color="rgb(47.155762%, 62.289429%, 93.939209%)" offset="0.242187"/><stop stop-opacity="1" stop-color="rgb(46.841431%, 61.968994%, 93.70575%)" offset="0.25"/><stop stop-opacity="1" stop-color="rgb(46.5271%, 61.647034%, 93.47229%)" offset="0.257812"/><stop stop-opacity="1" stop-color="rgb(46.214294%, 61.326599%, 93.237305%)" offset="0.265625"/><stop stop-opacity="1" stop-color="rgb(45.899963%, 61.006165%, 93.003845%)" offset="0.273438"/><stop stop-opacity="1" stop-color="rgb(45.585632%, 60.68573%, 92.76886%)" offset="0.28125"/><stop stop-opacity="1" stop-color="rgb(45.271301%, 60.365295%, 92.5354%)" offset="0.289062"/><stop stop-opacity="1" stop-color="rgb(44.95697%, 60.044861%, 92.301941%)" offset="0.296875"/><stop stop-opacity="1" stop-color="rgb(44.642639%, 59.724426%, 92.066956%)" offset="0.304687"/><stop stop-opacity="1" stop-color="rgb(44.328308%, 59.402466%, 91.833496%)" offset="0.3125"/><stop stop-opacity="1" stop-color="rgb(44.013977%, 59.082031%, 91.598511%)" offset="0.320312"/><stop stop-opacity="1" stop-color="rgb(43.699646%, 58.761597%, 91.365051%)" offset="0.328125"/><stop stop-opacity="1" stop-color="rgb(43.385315%, 58.441162%, 91.131592%)" offset="0.335938"/><stop stop-opacity="1" stop-color="rgb(43.070984%, 58.120728%, 90.896606%)" offset="0.34375"/><stop stop-opacity="1" stop-color="rgb(42.758179%, 57.800293%, 90.663147%)" offset="0.351562"/><stop stop-opacity="1" stop-color="rgb(42.443848%, 57.479858%, 90.428162%)" offset="0.359375"/><stop stop-opacity="1" stop-color="rgb(42.129517%, 57.157898%, 90.194702%)" offset="0.367187"/><stop stop-opacity="1" stop-color="rgb(41.815186%, 56.837463%, 89.961243%)" offset="0.375"/><stop stop-opacity="1" stop-color="rgb(41.500854%, 56.517029%, 89.726257%)" offset="0.382812"/><stop stop-opacity="1" stop-color="rgb(41.186523%, 56.196594%, 89.492798%)" offset="0.390625"/><stop stop-opacity="1" stop-color="rgb(40.872192%, 55.87616%, 89.257812%)" offset="0.398437"/><stop stop-opacity="1" stop-color="rgb(40.557861%, 55.555725%, 89.024353%)" offset="0.40625"/><stop stop-opacity="1" stop-color="rgb(40.24353%, 55.235291%, 88.790894%)" offset="0.414062"/><stop stop-opacity="1" stop-color="rgb(39.929199%, 54.91333%, 88.555908%)" offset="0.421875"/><stop stop-opacity="1" stop-color="rgb(39.614868%, 54.592896%, 88.322449%)" offset="0.429688"/><stop stop-opacity="1" stop-color="rgb(39.302063%, 54.272461%, 88.087463%)" offset="0.4375"/><stop stop-opacity="1" stop-color="rgb(38.987732%, 53.952026%, 87.854004%)" offset="0.445312"/><stop stop-opacity="1" stop-color="rgb(38.673401%, 53.631592%, 87.620544%)" offset="0.453125"/><stop stop-opacity="1" stop-color="rgb(38.35907%, 53.311157%, 87.385559%)" offset="0.460937"/><stop stop-opacity="1" stop-color="rgb(38.044739%, 52.990723%, 87.1521%)" offset="0.46875"/><stop stop-opacity="1" stop-color="rgb(37.730408%, 52.668762%, 86.917114%)" offset="0.476562"/><stop stop-opacity="1" stop-color="rgb(37.416077%, 52.348328%, 86.683655%)" offset="0.484375"/><stop stop-opacity="1" stop-color="rgb(37.101746%, 52.027893%, 86.450195%)" offset="0.492188"/><stop stop-opacity="1" stop-color="rgb(36.787415%, 51.707458%, 86.21521%)" offset="0.5"/><stop stop-opacity="1" stop-color="rgb(36.473083%, 51.387024%, 85.98175%)" offset="0.507812"/><stop stop-opacity="1" stop-color="rgb(36.158752%, 51.066589%, 85.746765%)" offset="0.515625"/><stop stop-opacity="1" stop-color="rgb(35.845947%, 50.746155%, 85.513306%)" offset="0.523438"/><stop stop-opacity="1" stop-color="rgb(35.531616%, 50.424194%, 85.279846%)" offset="0.53125"/><stop stop-opacity="1" stop-color="rgb(35.217285%, 50.10376%, 85.044861%)" offset="0.539062"/><stop stop-opacity="1" stop-color="rgb(34.902954%, 49.783325%, 84.811401%)" offset="0.546875"/><stop stop-opacity="1" stop-color="rgb(34.588623%, 49.462891%, 84.576416%)" offset="0.554687"/><stop stop-opacity="1" stop-color="rgb(34.274292%, 49.142456%, 84.342957%)" offset="0.5625"/><stop stop-opacity="1" stop-color="rgb(33.959961%, 48.822021%, 84.109497%)" offset="0.570313"/><stop stop-opacity="1" stop-color="rgb(33.64563%, 48.501587%, 83.874512%)" offset="0.578125"/><stop stop-opacity="1" stop-color="rgb(33.331299%, 48.179626%, 83.641052%)" offset="0.585938"/><stop stop-opacity="1" stop-color="rgb(33.016968%, 47.859192%, 83.406067%)" offset="0.59375"/><stop stop-opacity="1" stop-color="rgb(32.702637%, 47.538757%, 83.172607%)" offset="0.601562"/><stop stop-opacity="1" stop-color="rgb(32.389832%, 47.218323%, 82.939148%)" offset="0.609375"/><stop stop-opacity="1" stop-color="rgb(32.0755%, 46.897888%, 82.704163%)" offset="0.617188"/><stop stop-opacity="1" stop-color="rgb(31.761169%, 46.577454%, 82.470703%)" offset="0.625"/><stop stop-opacity="1" stop-color="rgb(31.446838%, 46.257019%, 82.235718%)" offset="0.632812"/><stop stop-opacity="1" stop-color="rgb(31.132507%, 45.935059%, 82.002258%)" offset="0.640625"/><stop stop-opacity="1" stop-color="rgb(30.818176%, 45.614624%, 81.768799%)" offset="0.648437"/><stop stop-opacity="1" stop-color="rgb(30.503845%, 45.294189%, 81.533813%)" offset="0.65625"/><stop stop-opacity="1" stop-color="rgb(30.189514%, 44.973755%, 81.300354%)" offset="0.664063"/><stop stop-opacity="1" stop-color="rgb(29.875183%, 44.65332%, 81.065369%)" offset="0.671875"/><stop stop-opacity="1" stop-color="rgb(29.560852%, 44.332886%, 80.831909%)" offset="0.679688"/><stop stop-opacity="1" stop-color="rgb(29.246521%, 44.012451%, 80.59845%)" offset="0.6875"/><stop stop-opacity="1" stop-color="rgb(28.93219%, 43.690491%, 80.363464%)" offset="0.695312"/><stop stop-opacity="1" stop-color="rgb(28.619385%, 43.370056%, 80.130005%)" offset="0.703125"/><stop stop-opacity="1" stop-color="rgb(28.305054%, 43.049622%, 79.89502%)" offset="0.710938"/><stop stop-opacity="1" stop-color="rgb(27.990723%, 42.729187%, 79.66156%)" offset="0.71875"/><stop stop-opacity="1" stop-color="rgb(27.676392%, 42.408752%, 79.428101%)" offset="0.726562"/><stop stop-opacity="1" stop-color="rgb(27.362061%, 42.088318%, 79.193115%)" offset="0.734375"/><stop stop-opacity="1" stop-color="rgb(27.047729%, 41.767883%, 78.959656%)" offset="0.742187"/><stop stop-opacity="1" stop-color="rgb(26.733398%, 41.445923%, 78.72467%)" offset="0.75"/><stop stop-opacity="1" stop-color="rgb(26.419067%, 41.125488%, 78.491211%)" offset="0.757813"/><stop stop-opacity="1" stop-color="rgb(26.104736%, 40.805054%, 78.257751%)" offset="0.765625"/><stop stop-opacity="1" stop-color="rgb(25.790405%, 40.484619%, 78.022766%)" offset="0.773438"/><stop stop-opacity="1" stop-color="rgb(25.476074%, 40.164185%, 77.789307%)" offset="0.78125"/><stop stop-opacity="1" stop-color="rgb(25.163269%, 39.84375%, 77.554321%)" offset="0.789062"/><stop stop-opacity="1" stop-color="rgb(24.848938%, 39.523315%, 77.320862%)" offset="0.796875"/><stop stop-opacity="1" stop-color="rgb(24.534607%, 39.201355%, 77.085876%)" offset="0.804688"/><stop stop-opacity="1" stop-color="rgb(24.220276%, 38.88092%, 76.852417%)" offset="0.8125"/><stop stop-opacity="1" stop-color="rgb(23.905945%, 38.560486%, 76.618958%)" offset="0.820312"/><stop stop-opacity="1" stop-color="rgb(23.591614%, 38.240051%, 76.383972%)" offset="0.828125"/><stop stop-opacity="1" stop-color="rgb(23.277283%, 37.919617%, 76.150513%)" offset="0.835937"/><stop stop-opacity="1" stop-color="rgb(22.962952%, 37.599182%, 75.915527%)" offset="0.84375"/><stop stop-opacity="1" stop-color="rgb(22.648621%, 37.278748%, 75.682068%)" offset="0.851563"/><stop stop-opacity="1" stop-color="rgb(22.33429%, 36.956787%, 75.448608%)" offset="0.859375"/><stop stop-opacity="1" stop-color="rgb(22.019958%, 36.636353%, 75.213623%)" offset="0.867188"/><stop stop-opacity="1" stop-color="rgb(21.707153%, 36.315918%, 74.980164%)" offset="0.875"/><stop stop-opacity="1" stop-color="rgb(21.392822%, 35.995483%, 74.745178%)" offset="0.882812"/><stop stop-opacity="1" stop-color="rgb(21.078491%, 35.675049%, 74.511719%)" offset="0.890625"/><stop stop-opacity="1" stop-color="rgb(20.76416%, 35.354614%, 74.278259%)" offset="0.898438"/><stop stop-opacity="1" stop-color="rgb(20.449829%, 35.03418%, 74.043274%)" offset="0.90625"/><stop stop-opacity="1" stop-color="rgb(20.135498%, 34.712219%, 73.809814%)" offset="0.914062"/><stop stop-opacity="1" stop-color="rgb(19.821167%, 34.391785%, 73.574829%)" offset="0.921875"/><stop stop-opacity="1" stop-color="rgb(19.506836%, 34.07135%, 73.34137%)" offset="0.929687"/><stop stop-opacity="1" stop-color="rgb(19.192505%, 33.750916%, 73.10791%)" offset="0.9375"/><stop stop-opacity="1" stop-color="rgb(18.878174%, 33.430481%, 72.872925%)" offset="0.945313"/><stop stop-opacity="1" stop-color="rgb(18.563843%, 33.110046%, 72.639465%)" offset="0.953125"/><stop stop-opacity="1" stop-color="rgb(18.251038%, 32.789612%, 72.40448%)" offset="0.960938"/><stop stop-opacity="1" stop-color="rgb(17.936707%, 32.467651%, 72.171021%)" offset="0.96875"/><stop stop-opacity="1" stop-color="rgb(17.622375%, 32.147217%, 71.937561%)" offset="0.976562"/><stop stop-opacity="1" stop-color="rgb(17.308044%, 31.826782%, 71.702576%)" offset="0.984375"/><stop stop-opacity="1" stop-color="rgb(17.004395%, 31.517029%, 71.478271%)" offset="1"/></linearGradient><clipPath id="24b9db5779"><rect x="0" width="968" y="0" height="189"/></clipPath></defs><rect x="-112.5" width="1350" fill="#ffffff" y="-37.499999" height="449.999989" fill-opacity="1"/><rect x="-112.5" width="1350" fill="#ffffff" y="-37.499999" height="449.999989" fill-opacity="1"/><g transform="matrix(1, 0, 0, 1, 61, 92)"><g clip-path="url(#24b9db5779)"><g fill="#2b50b6" fill-opacity="1"><g transform="translate(210.306227, 112.26523)"><g><path d="M 5.15625 0 L 5.15625 -78.296875 L 35.28125 -78.296875 C 42.082031 -78.296875 48.160156 -77.59375 53.515625 -76.1875 C 58.867188 -74.78125 63.085938 -72.238281 66.171875 -68.5625 C 69.253906 -64.894531 70.796875 -59.625 70.796875 -52.75 C 70.796875 -45.945312 69.253906 -40.691406 66.171875 -36.984375 C 63.085938 -33.273438 58.867188 -30.710938 53.515625 -29.296875 C 48.160156 -27.890625 42.082031 -27.1875 35.28125 -27.1875 L 23.671875 -27.1875 L 23.671875 0 Z M 23.671875 -42.546875 L 35.875 -42.546875 C 38.757812 -42.546875 41.351562 -42.816406 43.65625 -43.359375 C 45.96875 -43.910156 47.804688 -44.925781 49.171875 -46.40625 C 50.535156 -47.894531 51.21875 -50.007812 51.21875 -52.75 C 51.21875 -55.476562 50.535156 -57.566406 49.171875 -59.015625 C 47.804688 -60.460938 45.96875 -61.441406 43.65625 -61.953125 C 41.351562 -62.460938 38.757812 -62.71875 35.875 -62.71875 L 23.671875 -62.71875 Z M 23.671875 -42.546875 "/></g></g></g><g fill="#2b50b6" fill-opacity="1"><g transform="translate(291.891565, 112.26523)"><g><path d="M 5.15625 0 L 5.15625 -78.296875 L 35.28125 -78.296875 C 42.082031 -78.296875 48.160156 -77.628906 53.515625 -76.296875 C 58.867188 -74.972656 63.085938 -72.550781 66.171875 -69.03125 C 69.253906 -65.519531 70.796875 -60.519531 70.796875 -54.03125 C 70.796875 -51.0625 70.25 -48.113281 69.15625 -45.1875 C 68.0625 -42.257812 66.164062 -39.582031 63.46875 -37.15625 C 60.78125 -34.738281 56.929688 -32.863281 51.921875 -31.53125 L 74.671875 0 L 53.21875 0 L 32 -29.546875 L 23.671875 -29.546875 L 23.671875 0 Z M 23.671875 -45.015625 L 35.875 -45.015625 C 40.25 -45.015625 43.898438 -45.578125 46.828125 -46.703125 C 49.753906 -47.835938 51.21875 -50.203125 51.21875 -53.796875 C 51.21875 -57.472656 49.753906 -59.878906 46.828125 -61.015625 C 43.898438 -62.148438 40.25 -62.71875 35.875 -62.71875 L 23.671875 -62.71875 Z M 23.671875 -45.015625 "/></g></g></g><g fill="#2b50b6" fill-opacity="1"><g transform="translate(376.759061, 112.26523)"><g><path d="M 44.65625 1.40625 C 36.6875 1.40625 29.65625 -0.269531 23.5625 -3.625 C 17.46875 -6.988281 12.703125 -11.71875 9.265625 -17.8125 C 5.828125 -23.90625 4.109375 -31.019531 4.109375 -39.15625 C 4.109375 -47.28125 5.828125 -54.390625 9.265625 -60.484375 C 12.703125 -66.578125 17.46875 -71.300781 23.5625 -74.65625 C 29.65625 -78.019531 36.6875 -79.703125 44.65625 -79.703125 C 52.707031 -79.703125 59.78125 -78.019531 65.875 -74.65625 C 71.96875 -71.300781 76.753906 -66.578125 80.234375 -60.484375 C 83.710938 -54.390625 85.453125 -47.28125 85.453125 -39.15625 C 85.453125 -31.019531 83.710938 -23.90625 80.234375 -17.8125 C 76.753906 -11.71875 71.96875 -6.988281 65.875 -3.625 C 59.78125 -0.269531 52.707031 1.40625 44.65625 1.40625 Z M 44.65625 -13.828125 C 48.488281 -13.828125 52.003906 -14.785156 55.203125 -16.703125 C 58.410156 -18.617188 60.972656 -21.453125 62.890625 -25.203125 C 64.804688 -28.953125 65.765625 -33.601562 65.765625 -39.15625 C 65.765625 -44.695312 64.804688 -49.34375 62.890625 -53.09375 C 60.972656 -56.851562 58.410156 -59.6875 55.203125 -61.59375 C 52.003906 -63.507812 48.488281 -64.46875 44.65625 -64.46875 C 40.90625 -64.46875 37.425781 -63.507812 34.21875 -61.59375 C 31.019531 -59.6875 28.460938 -56.851562 26.546875 -53.09375 C 24.628906 -49.34375 23.671875 -44.695312 23.671875 -39.15625 C 23.671875 -33.601562 24.628906 -28.953125 26.546875 -25.203125 C 28.460938 -21.453125 31.019531 -18.617188 34.21875 -16.703125 C 37.425781 -14.785156 40.90625 -13.828125 44.65625 -13.828125 Z M 44.65625 -13.828125 "/></g></g></g><g fill="#2b50b6" fill-opacity="1"><g transform="translate(474.520752, 112.26523)"><g><path d="M 5.15625 0 L 5.15625 -78.296875 L 23.671875 -78.296875 L 23.671875 -48.40625 L 55.90625 -48.40625 L 55.90625 -78.296875 L 74.4375 -78.296875 L 74.4375 0 L 55.90625 0 L 55.90625 -32.125 L 23.671875 -32.125 L 23.671875 0 Z M 5.15625 0 "/></g></g></g><g fill="#2b50b6" fill-opacity="1"><g transform="translate(562.318747, 112.26523)"><g><path d="M 5.15625 0 L 5.15625 -78.296875 L 65.40625 -78.296875 L 65.40625 -62.015625 L 23.671875 -62.015625 L 23.671875 -48.40625 L 49.109375 -48.40625 L 49.109375 -32.125 L 23.671875 -32.125 L 23.671875 -16.296875 L 65.40625 -16.296875 L 65.40625 0 Z M 5.15625 0 "/></g></g></g><g fill="#2b50b6" fill-opacity="1"><g transform="translate(638.511968, 112.26523)"><g><path d="M 0.59375 0 L 30.25 -78.296875 L 50.640625 -78.296875 L 80.296875 0 L 60.140625 0 L 55.4375 -13.953125 L 25.4375 -13.953125 L 20.75 0 Z M 30.484375 -28.953125 L 50.40625 -28.953125 L 40.328125 -58.734375 Z M 30.484375 -28.953125 "/></g></g></g><g fill="#2b50b6" fill-opacity="1"><g transform="translate(727.599382, 112.26523)"><g><path d="M 5.15625 0 L 5.15625 -78.296875 L 23.671875 -78.296875 L 23.671875 -16.296875 L 61.1875 -16.296875 L 61.1875 0 Z M 5.15625 0 "/></g></g></g><g fill="#2b50b6" fill-opacity="1"><g transform="translate(798.752145, 112.26523)"><g><path d="M 26.953125 0 L 26.953125 -62.015625 L 1.765625 -62.015625 L 1.765625 -78.296875 L 70.5625 -78.296875 L 70.5625 -62.015625 L 45.359375 -62.015625 L 45.359375 0 Z M 26.953125 0 "/></g></g></g><g fill="#2b50b6" fill-opacity="1"><g transform="translate(879.282503, 112.26523)"><g><path d="M 5.15625 0 L 5.15625 -78.296875 L 23.671875 -78.296875 L 23.671875 -48.40625 L 55.90625 -48.40625 L 55.90625 -78.296875 L 74.4375 -78.296875 L 74.4375 0 L 55.90625 0 L 55.90625 -32.125 L 23.671875 -32.125 L 23.671875 0 Z M 5.15625 0 "/></g></g></g><g clip-path="url(#7ad88096bb)"><g transform="matrix(1, 0, 0, 1, 210, 124)"><g clip-path="url(#0f347f2835)"><g fill="#444444" fill-opacity="1"><g transform="translate(0.306226, 50.84838)"><g><path d="M 6 -36.8125 L 9.890625 -36.8125 L 9.890625 0 L 6 0 Z M 6 -36.8125 "/></g></g></g><g fill="#444444" fill-opacity="1"><g transform="translate(29.317714, 50.84838)"><g><path d="M 36.75 -36.8125 L 36.75 0 L 33.546875 0 L 9.890625 -29.859375 L 9.890625 0 L 6 0 L 6 -36.8125 L 9.203125 -36.8125 L 32.90625 -6.9375 L 32.90625 -36.8125 Z M 36.75 -36.8125 "/></g></g></g><g fill="#444444" fill-opacity="1"><g transform="translate(85.178575, 50.84838)"><g><path d="M 16.140625 0.3125 C 13.410156 0.3125 10.789062 -0.125 8.28125 -1 C 5.769531 -1.875 3.832031 -3.03125 2.46875 -4.46875 L 4 -7.46875 C 5.332031 -6.132812 7.101562 -5.054688 9.3125 -4.234375 C 11.519531 -3.410156 13.796875 -3 16.140625 -3 C 19.429688 -3 21.898438 -3.601562 23.546875 -4.8125 C 25.203125 -6.019531 26.03125 -7.585938 26.03125 -9.515625 C 26.03125 -10.984375 25.582031 -12.15625 24.6875 -13.03125 C 23.789062 -13.914062 22.691406 -14.59375 21.390625 -15.0625 C 20.097656 -15.539062 18.296875 -16.054688 15.984375 -16.609375 C 13.210938 -17.316406 11.003906 -17.992188 9.359375 -18.640625 C 7.710938 -19.285156 6.300781 -20.273438 5.125 -21.609375 C 3.945312 -22.941406 3.359375 -24.75 3.359375 -27.03125 C 3.359375 -28.882812 3.847656 -30.570312 4.828125 -32.09375 C 5.816406 -33.625 7.328125 -34.84375 9.359375 -35.75 C 11.390625 -36.664062 13.914062 -37.125 16.9375 -37.125 C 19.03125 -37.125 21.082031 -36.832031 23.09375 -36.25 C 25.113281 -35.675781 26.863281 -34.878906 28.34375 -33.859375 L 27.03125 -30.765625 C 25.488281 -31.773438 23.835938 -32.535156 22.078125 -33.046875 C 20.328125 -33.554688 18.613281 -33.8125 16.9375 -33.8125 C 13.707031 -33.8125 11.273438 -33.1875 9.640625 -31.9375 C 8.015625 -30.695312 7.203125 -29.09375 7.203125 -27.125 C 7.203125 -25.65625 7.648438 -24.472656 8.546875 -23.578125 C 9.441406 -22.679688 10.5625 -22 11.90625 -21.53125 C 13.257812 -21.0625 15.070312 -20.546875 17.34375 -19.984375 C 20.050781 -19.316406 22.234375 -18.65625 23.890625 -18 C 25.554688 -17.351562 26.96875 -16.375 28.125 -15.0625 C 29.28125 -13.75 29.859375 -11.972656 29.859375 -9.734375 C 29.859375 -7.867188 29.359375 -6.171875 28.359375 -4.640625 C 27.367188 -3.117188 25.835938 -1.910156 23.765625 -1.015625 C 21.691406 -0.128906 19.148438 0.3125 16.140625 0.3125 Z M 16.140625 0.3125 "/></g></g></g><g fill="#444444" fill-opacity="1"><g transform="translate(130.635969, 50.84838)"><g><path d="M 6 -36.8125 L 9.890625 -36.8125 L 9.890625 0 L 6 0 Z M 6 -36.8125 "/></g></g></g><g fill="#444444" fill-opacity="1"><g transform="translate(159.647456, 50.84838)"><g><path d="M 31.921875 -18.40625 L 35.640625 -18.40625 L 35.640625 -4.359375 C 33.929688 -2.859375 31.898438 -1.703125 29.546875 -0.890625 C 27.203125 -0.0859375 24.734375 0.3125 22.140625 0.3125 C 18.453125 0.3125 15.132812 -0.488281 12.1875 -2.09375 C 9.25 -3.707031 6.9375 -5.941406 5.25 -8.796875 C 3.570312 -11.660156 2.734375 -14.863281 2.734375 -18.40625 C 2.734375 -21.945312 3.570312 -25.144531 5.25 -28 C 6.9375 -30.851562 9.25 -33.085938 12.1875 -34.703125 C 15.132812 -36.316406 18.46875 -37.125 22.1875 -37.125 C 24.988281 -37.125 27.5625 -36.675781 29.90625 -35.78125 C 32.257812 -34.882812 34.242188 -33.5625 35.859375 -31.8125 L 33.4375 -29.34375 C 30.53125 -32.21875 26.832031 -33.65625 22.34375 -33.65625 C 19.363281 -33.65625 16.671875 -32.992188 14.265625 -31.671875 C 11.867188 -30.359375 9.988281 -28.535156 8.625 -26.203125 C 7.257812 -23.878906 6.578125 -21.28125 6.578125 -18.40625 C 6.578125 -15.53125 7.257812 -12.9375 8.625 -10.625 C 9.988281 -8.3125 11.863281 -6.488281 14.25 -5.15625 C 16.632812 -3.820312 19.316406 -3.15625 22.296875 -3.15625 C 26.078125 -3.15625 29.285156 -4.101562 31.921875 -6 Z M 31.921875 -18.40625 "/></g></g></g><g fill="#444444" fill-opacity="1"><g transform="translate(213.406622, 50.84838)"><g><path d="M 36.75 -36.8125 L 36.75 0 L 32.90625 0 L 32.90625 -16.984375 L 9.890625 -16.984375 L 9.890625 0 L 6 0 L 6 -36.8125 L 9.890625 -36.8125 L 9.890625 -20.40625 L 32.90625 -20.40625 L 32.90625 -36.8125 Z M 36.75 -36.8125 "/></g></g></g><g fill="#444444" fill-opacity="1"><g transform="translate(269.267483, 50.84838)"><g><path d="M 13.140625 -33.4375 L 0.203125 -33.4375 L 0.203125 -36.8125 L 29.96875 -36.8125 L 29.96875 -33.4375 L 17.03125 -33.4375 L 17.03125 0 L 13.140625 0 Z M 13.140625 -33.4375 "/></g></g></g><g fill="#444444" fill-opacity="1"><g transform="translate(312.570622, 50.84838)"><g><path d="M 16.140625 0.3125 C 13.410156 0.3125 10.789062 -0.125 8.28125 -1 C 5.769531 -1.875 3.832031 -3.03125 2.46875 -4.46875 L 4 -7.46875 C 5.332031 -6.132812 7.101562 -5.054688 9.3125 -4.234375 C 11.519531 -3.410156 13.796875 -3 16.140625 -3 C 19.429688 -3 21.898438 -3.601562 23.546875 -4.8125 C 25.203125 -6.019531 26.03125 -7.585938 26.03125 -9.515625 C 26.03125 -10.984375 25.582031 -12.15625 24.6875 -13.03125 C 23.789062 -13.914062 22.691406 -14.59375 21.390625 -15.0625 C 20.097656 -15.539062 18.296875 -16.054688 15.984375 -16.609375 C 13.210938 -17.316406 11.003906 -17.992188 9.359375 -18.640625 C 7.710938 -19.285156 6.300781 -20.273438 5.125 -21.609375 C 3.945312 -22.941406 3.359375 -24.75 3.359375 -27.03125 C 3.359375 -28.882812 3.847656 -30.570312 4.828125 -32.09375 C 5.816406 -33.625 7.328125 -34.84375 9.359375 -35.75 C 11.390625 -36.664062 13.914062 -37.125 16.9375 -37.125 C 19.03125 -37.125 21.082031 -36.832031 23.09375 -36.25 C 25.113281 -35.675781 26.863281 -34.878906 28.34375 -33.859375 L 27.03125 -30.765625 C 25.488281 -31.773438 23.835938 -32.535156 22.078125 -33.046875 C 20.328125 -33.554688 18.613281 -33.8125 16.9375 -33.8125 C 13.707031 -33.8125 11.273438 -33.1875 9.640625 -31.9375 C 8.015625 -30.695312 7.203125 -29.09375 7.203125 -27.125 C 7.203125 -25.65625 7.648438 -24.472656 8.546875 -23.578125 C 9.441406 -22.679688 10.5625 -22 11.90625 -21.53125 C 13.257812 -21.0625 15.070312 -20.546875 17.34375 -19.984375 C 20.050781 -19.316406 22.234375 -18.65625 23.890625 -18 C 25.554688 -17.351562 26.96875 -16.375 28.125 -15.0625 C 29.28125 -13.75 29.859375 -11.972656 29.859375 -9.734375 C 29.859375 -7.867188 29.359375 -6.171875 28.359375 -4.640625 C 27.367188 -3.117188 25.835938 -1.910156 23.765625 -1.015625 C 21.691406 -0.128906 19.148438 0.3125 16.140625 0.3125 Z M 16.140625 0.3125 "/></g></g></g></g></g></g><g clip-path="url(#fa43213562)"><path fill="#2b50b6" d="M 73.667969 70.902344 L 73.667969 8.445312 L 117.25 8.445312 C 117.25 8.445312 117.832031 37.679688 106.6875 49.457031 C 95.546875 61.234375 73.667969 70.902344 73.667969 70.902344 Z M 73.667969 70.902344 " fill-opacity="1" fill-rule="nonzero"/></g><g clip-path="url(#8cf82cea86)"><g clip-path="url(#35e40ac601)"><path fill="url(#b2e06a0418)" d="M 1.125 10.800781 L 1.125 124.511719 L 117.292969 124.511719 L 117.292969 10.800781 Z M 1.125 10.800781 " fill-rule="nonzero"/></g></g><g clip-path="url(#6313aeb420)"><path fill="#2b50b6" d="M 117.253906 120.082031 L 117.253906 182.539062 L 73.675781 182.539062 C 73.675781 182.539062 73.089844 153.304688 84.234375 141.53125 C 95.375 129.757812 117.253906 120.082031 117.253906 120.082031 Z M 117.253906 120.082031 " fill-opacity="1" fill-rule="nonzero"/></g><g clip-path="url(#29988cdc53)"><g clip-path="url(#44596276fc)"><path fill="url(#19bd326fe4)" d="M 189.550781 180.183594 L 189.550781 66.476562 L 73.625 66.476562 L 73.625 180.183594 Z M 189.550781 180.183594 " fill-rule="nonzero"/></g></g></g></g></svg>